# xmcd CD database file
#
# Track frame offsets:
#	150
#	28137
#	58553
#	77986
#	100517
#	119132
#	138547
#	160521
#	177091
#
# Disc length: 2642 seconds
#
# Revision: 0
# Processed by: cddbd v1.4PL0 Copyright (c) Steve Scherf et al.
# Submitted via: Feurio! 1.66 - http://www.feurio.com
#
DISCID=720a5009
DTITLE=Willie Dixon - I Am The Blues
DYEAR=1900
DGENRE=
TTITLE0=Back Door Man
TTITLE1=I Can't Quit You, Baby
TTITLE2=The Seventh Son
TTITLE3=Spoonful
TTITLE4=I Ain't Superstitous
TTITLE5=You Shook Me
TTITLE6=I'm You Hoochie Coochie Man
TTITLE7=The Little Red Rooster
TTITLE8=The Same Thing
EXTD=
EXTT0=
EXTT1=
EXTT2=
EXTT3=
EXTT4=
EXTT5=
EXTT6=
EXTT7=
EXTT8=
PLAYORDER=
